<?xml version="1.0" encoding="UTF-8"?>
<!-- Created with Inkscape (http://www.inkscape.org/) -->
<svg width="50.29" height="106.16" version="1.1" viewBox="0 0 13.306 28.089" xml:space="preserve" xmlns="http://www.w3.org/2000/svg"><g transform="translate(-103.75 -112.72)"><g transform="translate(-5.1226 75.569)"><g transform="translate(71.265 -8.4853)"><g><path d="m44.242 51.55c-0.80698 0-1.5015-0.28348-2.0836-0.85043-0.56886-0.58014-0.85329-1.2789-0.85329-2.0964 0-0.81746 0.28443-1.5163 0.85329-2.0964 0.58208-0.58014 1.2766-0.8702 2.0836-0.8702 0.83343 0 1.5346 0.29007 2.1034 0.8702 0.58207 0.58014 0.87312 1.2789 0.87312 2.0964 0 0.81747-0.29105 1.5163-0.87312 2.0964-0.56886 0.56695-1.27 0.85043-2.1034 0.85043z" fill="#006fee" aria-label="Sesame."/><path d="m44.232 60.42c-1.2105 0-2.2523-0.42522-3.1254-1.2756-0.85329-0.87021-1.2799-1.9184-1.2799-3.1446 0-1.2262 0.42664-2.2744 1.2799-3.1446 0.87312-0.8702 1.9149-1.3053 3.1254-1.3053 1.2501 0 2.3019 0.4351 3.1552 1.3053 0.8731 0.87021 1.3097 1.9184 1.3097 3.1446 0 1.2262-0.43658 2.2744-1.3097 3.1446-0.85329 0.85043-1.905 1.2756-3.1552 1.2756z" fill="#ffc800" aria-label="Sesame."/><path d="m44.218 73.726c-1.8158 0-3.3786-0.63785-4.6883-1.9136-1.28-1.3054-1.92-2.8778-1.92-4.7171s0.63999-3.4118 1.92-4.7171c1.3097-1.3054 2.8725-1.9581 4.6883-1.9581 1.8753 0 3.453 0.65268 4.733 1.9581 1.3097 1.3054 1.9646 2.8777 1.9646 4.7171s-0.65491 3.4118-1.9646 4.7171c-1.28 1.2757-2.8577 1.9136-4.733 1.9136z" fill="#e6001a" aria-label="Sesame."/></g></g></g></g></svg>
